<mxfile host="65bd71144e">
    <diagram id="GEynWf5i7sN6g8vhte-Q" name="Page-1">
        <mxGraphModel dx="3020" dy="1169" grid="1" gridSize="10" guides="1" tooltips="1" connect="1" arrows="1" fold="1" page="1" pageScale="1" pageWidth="1169" pageHeight="827" math="0" shadow="0">
            <root>
                <mxCell id="0"/>
                <mxCell id="1" parent="0"/>
                <mxCell id="4" value="Bundle" style="rounded=1;whiteSpace=wrap;html=1;fillColor=#dae8fc;strokeColor=#6c8ebf;align=left;verticalAlign=top;arcSize=13;spacingLeft=10;fontStyle=1;fontColor=#000000;" parent="1" vertex="1">
                    <mxGeometry x="-1040" y="120" width="200" height="310" as="geometry"/>
                </mxCell>
                <mxCell id="5" value="Patientenakten &quot;54321&quot;" style="rounded=1;whiteSpace=wrap;html=1;fillColor=#E6E6E6;strokeColor=#666666;align=left;verticalAlign=top;arcSize=13;spacingLeft=10;fontStyle=1;fontColor=#000000;gradientColor=none;" vertex="1" parent="1">
                    <mxGeometry x="-800" y="120" width="190" height="310" as="geometry"/>
                </mxCell>
                <mxCell id="6" value="&lt;b&gt;Composition&lt;/b&gt;&lt;br&gt;&lt;br&gt;.text&lt;br&gt;&lt;br&gt;&lt;br&gt;&lt;br&gt;.encounter&lt;br&gt;&lt;br&gt;&lt;br&gt;.subject&lt;br&gt;&lt;br&gt;&lt;br&gt;.section &quot;Diagnosen&quot;&lt;br&gt;&lt;br&gt;&lt;br&gt;&lt;br&gt;.section &quot;Laborwerte&quot;" style="rounded=1;whiteSpace=wrap;html=1;fillColor=#CCCCFF;strokeColor=#6c8ebf;align=left;verticalAlign=top;arcSize=17;spacingLeft=6;fontStyle=0;fontSize=10;spacingTop=-2;fontColor=#000000;" vertex="1" parent="1">
                    <mxGeometry x="-1030" y="150" width="120" height="270" as="geometry"/>
                </mxCell>
                <mxCell id="7" value="&lt;font style=&quot;font-size: 10px;&quot;&gt;&lt;span style=&quot;font-size: 10px;&quot;&gt;Fallakte &quot;12345&quot;&lt;br style=&quot;font-size: 10px;&quot;&gt;&lt;br style=&quot;font-size: 10px;&quot;&gt;&lt;span style=&quot;font-weight: normal;&quot;&gt;Dokumente:&lt;br&gt;&lt;/span&gt;&lt;/span&gt;&lt;span style=&quot;background-color: initial; font-weight: normal;&quot;&gt;&amp;nbsp; &amp;nbsp;-&lt;span style=&quot;white-space: pre;&quot;&gt;&#9;&lt;/span&gt;Befundbericht vom &lt;span style=&quot;white-space: pre;&quot;&gt;&#9;&lt;/span&gt;9.10.2020&lt;br&gt;&lt;/span&gt;&lt;span style=&quot;font-size: 10px;&quot;&gt;&lt;span style=&quot;font-weight: normal;&quot;&gt;&lt;br&gt;&lt;br&gt;&lt;br&gt;&lt;br&gt;&lt;br&gt;Diagnosen:&lt;br&gt;&amp;nbsp; &amp;nbsp;-&lt;span style=&quot;white-space: pre;&quot;&gt;&#9;&lt;/span&gt;Diabetes Typ II&lt;br&gt;&lt;br&gt;Laborwerte:&lt;br&gt;&amp;nbsp; &amp;nbsp;-&lt;span style=&quot;white-space: pre;&quot;&gt;&#9;&lt;/span&gt;Blutzucker: 201mg/dl&amp;nbsp;&lt;br&gt;&lt;/span&gt;&lt;/span&gt;&lt;br style=&quot;font-size: 10px;&quot;&gt;&lt;/font&gt;" style="rounded=1;whiteSpace=wrap;html=1;fillColor=#CCCCCC;strokeColor=#666666;align=left;verticalAlign=top;arcSize=11;spacingLeft=6;fontStyle=1;fontColor=#000000;gradientColor=none;spacingTop=-2;fontSize=10;" vertex="1" parent="1">
                    <mxGeometry x="-790" y="150" width="170" height="210" as="geometry"/>
                </mxCell>
                <mxCell id="13" value="&lt;div style=&quot;font-size: 6px;&quot;&gt;&lt;span style=&quot;font-size: 6px; background-color: initial;&quot;&gt;&amp;lt;html&amp;lt;h1&amp;gt;Befundbericht&amp;lt;/h1&amp;gt;&lt;br style=&quot;font-size: 6px;&quot;&gt;&lt;/span&gt;&lt;span style=&quot;background-color: initial; font-size: 6px;&quot;&gt;&amp;lt;p&amp;gt;Patient: Mustermann, Max&amp;nbsp;&lt;/span&gt;&lt;span style=&quot;background-color: initial; font-size: 6px;&quot;&gt;(*01.01.1970)&amp;lt;/p&amp;gt;&lt;/span&gt;&lt;span style=&quot;background-color: initial; font-size: 6px;&quot;&gt;&amp;lt;h2&amp;gt;Diagnosen&amp;lt;/h2&amp;gt;…&lt;/span&gt;&lt;/div&gt;&lt;font style=&quot;font-size: 6px;&quot;&gt;&lt;div style=&quot;font-size: 6px;&quot;&gt;&lt;span style=&quot;background-color: initial; font-size: 6px;&quot;&gt;&amp;lt;h2&amp;gt;VitalParameter&amp;lt;/h2&amp;gt;&lt;br style=&quot;font-size: 6px;&quot;&gt;&lt;/span&gt;&lt;span style=&quot;background-color: initial; font-size: 6px;&quot;&gt;…mit freundlichen Grüßen&amp;lt;/html&amp;gt;&lt;/span&gt;&lt;/div&gt;&lt;/font&gt;" style="rounded=0;whiteSpace=wrap;html=1;fontSize=6;fontColor=#000000;fillColor=#FFFFFF;gradientColor=none;align=left;verticalAlign=top;spacing=0;spacingRight=0;spacingLeft=2;strokeWidth=0.5;" vertex="1" parent="1">
                    <mxGeometry x="-1000" y="180" width="140" height="45" as="geometry"/>
                </mxCell>
                <mxCell id="14" value="&lt;div style=&quot;font-size: 6px;&quot;&gt;&lt;span style=&quot;font-size: 6px; background-color: initial;&quot;&gt;&amp;lt;html&amp;lt;h1&amp;gt;Befundbericht&amp;lt;/h1&amp;gt;&lt;br style=&quot;font-size: 6px;&quot;&gt;&lt;/span&gt;&lt;span style=&quot;background-color: initial; font-size: 6px;&quot;&gt;&amp;lt;p&amp;gt;Patient: Mustermann, Max&amp;nbsp;&lt;/span&gt;&lt;span style=&quot;background-color: initial; font-size: 6px;&quot;&gt;(*01.01.1970)&amp;lt;/p&amp;gt;&lt;/span&gt;&lt;span style=&quot;background-color: initial; font-size: 6px;&quot;&gt;&amp;lt;h2&amp;gt;Diagnosen&amp;lt;/h2&amp;gt;…&lt;/span&gt;&lt;/div&gt;&lt;font style=&quot;font-size: 6px;&quot;&gt;&lt;div style=&quot;font-size: 6px;&quot;&gt;&lt;span style=&quot;background-color: initial; font-size: 6px;&quot;&gt;&amp;lt;h2&amp;gt;VitalParameter&amp;lt;/h2&amp;gt;&lt;br style=&quot;font-size: 6px;&quot;&gt;&lt;/span&gt;&lt;span style=&quot;background-color: initial; font-size: 6px;&quot;&gt;…mit freundlichen Grüßen&amp;lt;/html&amp;gt;&lt;/span&gt;&lt;/div&gt;&lt;/font&gt;" style="rounded=0;whiteSpace=wrap;html=1;fontSize=6;fontColor=#000000;fillColor=#FFFFFF;gradientColor=none;align=left;verticalAlign=top;spacing=0;spacingRight=0;spacingLeft=2;strokeWidth=0.5;" vertex="1" parent="1">
                    <mxGeometry x="-775" y="210" width="140" height="45" as="geometry"/>
                </mxCell>
                <mxCell id="15" value="Encounter.identifier&lt;br&gt;&lt;span style=&quot;white-space: pre;&quot;&gt;&#9;&lt;/span&gt;= 12345" style="rounded=1;whiteSpace=wrap;html=1;fillColor=#9999FF;strokeColor=#6c8ebf;align=left;verticalAlign=middle;arcSize=17;spacingLeft=8;fontStyle=0;fontSize=10;spacingTop=0;fontColor=#000000;spacing=0;" vertex="1" parent="1">
                    <mxGeometry x="-970" y="230" width="110" height="30" as="geometry"/>
                </mxCell>
                <mxCell id="16" value="Patient.identifier&lt;br&gt;&lt;span style=&quot;white-space: pre;&quot;&gt;&#9;&lt;/span&gt;= 54321" style="rounded=1;whiteSpace=wrap;html=1;fillColor=#9999FF;strokeColor=#6c8ebf;align=left;verticalAlign=middle;arcSize=17;spacingLeft=8;fontStyle=0;fontSize=10;spacingTop=0;fontColor=#000000;spacing=0;" vertex="1" parent="1">
                    <mxGeometry x="-970" y="265" width="110" height="30" as="geometry"/>
                </mxCell>
                <mxCell id="17" value="Condition.display&lt;br&gt;= &quot;Diabetes Typ II&quot;" style="rounded=1;whiteSpace=wrap;html=1;fillColor=#9999FF;strokeColor=#6c8ebf;align=left;verticalAlign=middle;arcSize=17;spacingLeft=8;fontStyle=0;fontSize=10;spacingTop=0;fontColor=#000000;spacing=0;" vertex="1" parent="1">
                    <mxGeometry x="-970" y="314" width="110" height="30" as="geometry"/>
                </mxCell>
                <mxCell id="19" style="edgeStyle=none;html=1;exitX=1;exitY=0.5;exitDx=0;exitDy=0;fontSize=6;fontColor=#000000;strokeColor=#999999;" edge="1" parent="1" source="18">
                    <mxGeometry relative="1" as="geometry">
                        <mxPoint x="-780" y="318" as="targetPoint"/>
                    </mxGeometry>
                </mxCell>
                <mxCell id="18" value="Observation&lt;br&gt;.code = &quot;Blutzucker&quot;&lt;br&gt;.value = &quot;201 mg/dl&quot;" style="rounded=1;whiteSpace=wrap;html=1;fillColor=#9999FF;strokeColor=#6c8ebf;align=left;verticalAlign=middle;arcSize=17;spacingLeft=8;fontStyle=0;fontSize=10;spacingTop=0;fontColor=#000000;spacing=0;" vertex="1" parent="1">
                    <mxGeometry x="-970" y="362" width="110" height="45" as="geometry"/>
                </mxCell>
                <mxCell id="20" style="edgeStyle=none;html=1;exitX=1;exitY=0.5;exitDx=0;exitDy=0;fontSize=6;fontColor=#000000;strokeColor=#999999;" edge="1" parent="1" source="17">
                    <mxGeometry relative="1" as="geometry">
                        <mxPoint x="-850.0000000000001" y="394.5000000000001" as="sourcePoint"/>
                        <mxPoint x="-780" y="282" as="targetPoint"/>
                    </mxGeometry>
                </mxCell>
                <mxCell id="22" style="edgeStyle=none;html=1;exitX=1;exitY=0.5;exitDx=0;exitDy=0;fontSize=6;fontColor=#000000;strokeColor=#000000;entryX=0.053;entryY=0.067;entryDx=0;entryDy=0;entryPerimeter=0;" edge="1" parent="1" source="16" target="5">
                    <mxGeometry relative="1" as="geometry">
                        <mxPoint x="-850.0000000000001" y="339" as="sourcePoint"/>
                        <mxPoint x="-770" y="292.0000000000001" as="targetPoint"/>
                    </mxGeometry>
                </mxCell>
                <mxCell id="23" style="edgeStyle=none;html=1;exitX=1;exitY=0.5;exitDx=0;exitDy=0;fontSize=6;fontColor=#000000;strokeColor=#000000;" edge="1" parent="1" source="15">
                    <mxGeometry relative="1" as="geometry">
                        <mxPoint x="-850.0000000000001" y="290" as="sourcePoint"/>
                        <mxPoint x="-785" y="167" as="targetPoint"/>
                    </mxGeometry>
                </mxCell>
                <mxCell id="24" style="edgeStyle=none;html=1;exitX=1;exitY=0.5;exitDx=0;exitDy=0;fontSize=6;fontColor=#000000;strokeColor=#000000;entryX=0;entryY=0.5;entryDx=0;entryDy=0;" edge="1" parent="1" source="13" target="14">
                    <mxGeometry relative="1" as="geometry">
                        <mxPoint x="-850.0000000000001" y="255" as="sourcePoint"/>
                        <mxPoint x="-775" y="177" as="targetPoint"/>
                    </mxGeometry>
                </mxCell>
            </root>
        </mxGraphModel>
    </diagram>
</mxfile>